<svg xmlns="http://www.w3.org/2000/svg" width="24.336" height="21.5" viewBox="0 0 24.336 21.5"><path d="M22.561,31.948a6.13,6.13,0,0,0-9.787.7,9.331,9.331,0,0,0-.606.982,9.323,9.323,0,0,0-.606-.982,6.13,6.13,0,0,0-9.787-.7A7.377,7.377,0,0,0,0,36.848a9.033,9.033,0,0,0,2.488,5.927,55.391,55.391,0,0,0,6.227,5.818c.942.8,1.916,1.632,2.952,2.54l.031.027a.713.713,0,0,0,.939,0l.031-.027c1.037-.907,2.011-1.737,2.953-2.54a55.384,55.384,0,0,0,6.227-5.818,9.034,9.034,0,0,0,2.488-5.927A7.377,7.377,0,0,0,22.561,31.948ZM14.7,47.507c-.812.692-1.647,1.4-2.528,2.17-.881-.766-1.717-1.478-2.529-2.17-4.946-4.215-8.214-7-8.214-10.66a5.953,5.953,0,0,1,1.419-3.957,4.759,4.759,0,0,1,3.619-1.629A4.807,4.807,0,0,1,10.4,33.477a8.453,8.453,0,0,1,1.091,2.17.713.713,0,0,0,1.356,0,8.454,8.454,0,0,1,1.091-2.17,4.706,4.706,0,0,1,7.553-.586,5.953,5.953,0,0,1,1.419,3.957C22.91,40.508,19.643,43.292,14.7,47.507Z" transform="translate(0 -29.836)" fill="#66cb17"></path></svg>