<svg xmlns="http://www.w3.org/2000/svg" width="22.909" height="21" viewBox="0 0 22.909 21"><g transform="translate(0 -1)"><g transform="translate(3.907 8.65)"><path d="M7.1,10.4H4.771a.7.7,0,1,1,0-1.4H7.1a.7.7,0,0,1,0,1.4Z" transform="translate(-4.073 -9)" fill="#ffb726"></path></g><g transform="translate(10.726 8.65)"><path d="M18.754,10.4H11.771a.7.7,0,0,1,0-1.4h6.983a.7.7,0,1,1,0,1.4Z" transform="translate(-11.073 -9)" fill="#ffb726"></path></g><g transform="translate(3.907 12.475)"><path d="M7.1,14.4H4.771a.7.7,0,1,1,0-1.4H7.1a.7.7,0,0,1,0,1.4Z" transform="translate(-4.073 -13)" fill="#ffb726"></path></g><g transform="translate(10.726 12.475)"><path d="M18.754,14.4H11.771a.7.7,0,0,1,0-1.4h6.983a.7.7,0,1,1,0,1.4Z" transform="translate(-11.073 -13)" fill="#ffb726"></path></g><g transform="translate(3.907 16.3)"><path d="M7.1,18.4H4.771a.7.7,0,0,1,0-1.4H7.1a.7.7,0,0,1,0,1.4Z" transform="translate(-4.073 -17)" fill="#ffb726"></path></g><g transform="translate(10.726 16.3)"><path d="M18.754,18.4H11.771a.7.7,0,1,1,0-1.4h6.983a.7.7,0,1,1,0,1.4Z" transform="translate(-11.073 -17)" fill="#ffb726"></path></g><g transform="translate(0 1)"><path d="M20.284,22H2.625A2.627,2.627,0,0,1,0,19.375V3.625A2.627,2.627,0,0,1,2.625,1H20.284a2.627,2.627,0,0,1,2.625,2.625v15.75A2.627,2.627,0,0,1,20.284,22ZM2.625,2.432A1.2,1.2,0,0,0,1.432,3.625v15.75a1.2,1.2,0,0,0,1.193,1.193H20.284a1.2,1.2,0,0,0,1.193-1.193V3.625a1.2,1.2,0,0,0-1.193-1.193Z" transform="translate(0 -1)" fill="#ffb726"></path></g><g transform="translate(0 4.347)"><path d="M22.193,5.9H.716a.7.7,0,1,1,0-1.4H22.193a.7.7,0,1,1,0,1.4Z" transform="translate(0 -4.5)" fill="#ffb726"></path></g></g></svg>