<svg xmlns="http://www.w3.org/2000/svg" width="20.922" height="21.776" viewBox="0 0 20.922 21.776"><path d="M30.918,4.82,29.592,8.8a2.5,2.5,0,0,1-2.37,1.709H23.263a.851.851,0,0,1,0-1.7h3.958a.8.8,0,0,0,.757-.545L29.3,4.282a.851.851,0,1,1,1.614.538ZM14.8,2.765a2.765,2.765,0,1,1,2.765,2.765A2.768,2.768,0,0,1,14.8,2.765Zm1.7,0A1.063,1.063,0,1,0,17.568,1.7,1.064,1.064,0,0,0,16.5,2.765Zm6.376,14.929A2.556,2.556,0,0,1,20.8,20.2v.724a.851.851,0,1,1-1.7,0v-.681H16.648a5.07,5.07,0,0,1-1.38-.192v.872a.851.851,0,1,1-1.7,0V19.394a.853.853,0,0,1,.02-.181A5.041,5.041,0,0,1,11.742,16.4L10.115,9.771A2.567,2.567,0,0,1,15.1,8.54l1.642,6.6h3.588A2.555,2.555,0,0,1,22.881,17.693Zm-1.7,0a.852.852,0,0,0-.851-.851H16.7a1.646,1.646,0,0,1-1.6-1.251L13.447,8.95a.866.866,0,0,0-1.68.415l1.627,6.627a3.343,3.343,0,0,0,3.253,2.551h3.681A.852.852,0,0,0,21.179,17.693Zm4.25,3.342.821-6.3v0a2.552,2.552,0,0,0-2.532-2.867H21.08l-.859-3.4,0-.014a2.566,2.566,0,0,0-2.462-1.9h-.719a.851.851,0,0,0,0,1.7h.719a.873.873,0,0,1,.819.642l1.019,4.032a.851.851,0,0,0,.825.642h3.3a.851.851,0,0,1,.844.954l-.821,6.294a.851.851,0,1,0,1.687.22Z" transform="translate(-10.04)" fill="#66cb17"></path></svg>