<?xml version="1.0" encoding="UTF-8" ?>
<!DOCTYPE svg PUBLIC "-//W3C//DTD SVG 1.1//EN" "http://www.w3.org/Graphics/SVG/1.1/DTD/svg11.dtd">
<svg width="650pt" height="656pt" viewBox="0 0 650 656" version="1.1" xmlns="http://www.w3.org/2000/svg">
<g id="#ffffffff">
<path fill="#ffffff" opacity="1.00" d=" M 404.17 133.26 C 411.19 126.57 420.57 122.87 430.05 121.42 C 435.55 121.61 440.77 124.61 444.34 128.72 C 447.80 132.89 447.94 138.59 448.14 143.74 C 439.97 145.40 431.94 147.96 423.57 148.47 C 420.75 148.87 416.86 148.22 415.32 151.25 L 414.40 150.87 L 415.53 151.39 C 418.43 150.54 422.03 148.91 424.79 151.01 C 427.42 153.22 426.53 157.21 424.61 159.57 C 422.10 161.02 419.69 162.64 417.40 164.42 C 413.05 167.74 407.96 169.85 403.03 172.13 C 393.80 176.44 384.53 180.80 374.82 183.93 C 372.90 184.36 369.95 185.61 368.73 183.32 C 367.29 180.32 366.92 176.96 366.49 173.71 C 367.03 170.09 368.86 166.75 368.89 163.04 C 366.96 165.30 366.47 168.33 365.57 171.07 C 363.62 178.27 361.34 185.50 361.08 193.01 C 361.01 196.32 361.41 199.63 361.14 202.93 C 360.27 212.81 362.93 222.59 362.14 232.48 C 358.46 240.00 358.14 248.71 354.08 256.10 C 353.19 258.05 351.47 259.38 349.83 260.66 C 350.45 255.42 351.21 249.87 349.14 244.84 C 347.78 241.47 344.86 238.36 341.09 237.99 C 336.98 237.44 333.04 239.44 330.11 242.16 C 324.08 247.73 320.74 255.84 320.26 263.96 C 319.97 268.73 321.14 273.86 324.59 277.34 C 326.94 279.81 330.60 279.76 333.71 280.46 C 331.79 283.93 329.55 287.23 326.83 290.12 C 319.57 291.37 313.61 297.16 305.96 296.71 C 301.07 296.71 296.23 293.10 296.51 287.86 L 296.43 287.37 C 298.75 283.87 300.56 280.00 301.59 275.92 C 300.54 276.75 299.67 277.80 299.20 279.08 C 296.46 285.26 293.45 291.89 287.58 295.72 C 282.37 298.82 276.23 299.53 270.37 300.61 C 270.55 299.50 270.73 298.41 270.91 297.31 C 263.69 295.72 256.24 295.41 249.11 293.38 C 249.82 291.51 250.52 289.51 252.14 288.22 C 256.85 284.06 262.74 281.47 267.27 277.08 C 260.97 278.01 255.28 281.31 248.96 282.01 C 245.71 282.42 244.73 278.51 244.96 276.01 C 245.45 266.40 251.07 258.22 256.16 250.43 C 263.81 246.54 272.61 247.42 280.84 248.38 C 275.43 244.76 268.29 246.56 262.19 246.77 C 263.33 242.04 264.34 237.04 267.57 233.22 C 279.74 235.21 291.54 240.34 301.13 248.10 C 298.93 249.13 296.00 249.33 294.70 251.68 C 299.06 250.74 303.08 248.74 307.28 247.30 C 309.38 246.62 311.40 245.68 313.16 244.33 C 311.49 244.49 309.84 244.76 308.20 245.05 C 303.57 241.02 299.64 236.30 297.26 230.60 C 299.56 228.65 302.03 226.89 304.68 225.45 C 307.59 226.06 310.51 226.65 313.43 227.24 C 314.14 231.14 313.23 235.68 315.47 239.12 C 315.81 235.21 315.08 231.33 314.80 227.44 C 318.74 227.58 322.69 227.64 326.63 227.55 C 324.60 231.40 322.61 235.39 319.46 238.47 C 317.47 240.22 314.96 241.20 312.79 242.69 C 316.99 242.88 320.41 239.98 322.71 236.75 C 326.49 231.45 329.16 225.45 332.83 220.07 C 335.96 215.49 339.06 210.86 342.60 206.58 C 344.57 203.70 349.50 204.56 350.67 200.93 C 349.94 193.50 346.89 186.52 344.95 179.35 C 346.36 177.65 348.14 176.11 348.88 173.97 C 348.17 171.25 345.48 169.83 343.61 167.99 C 345.95 165.54 348.32 162.98 351.35 161.36 C 356.76 158.52 362.99 157.78 369.02 157.98 C 372.04 158.17 374.62 156.38 377.28 155.25 C 382.46 152.73 387.93 150.74 392.93 147.87 C 396.30 142.73 399.52 137.38 404.17 133.26 Z" />
<path fill="#ffffff" opacity="1.00" d=" M 312.43 134.60 C 316.77 132.07 324.02 132.42 326.36 137.49 C 327.15 141.59 326.25 146.55 322.88 149.33 C 324.19 145.49 326.92 141.28 325.02 137.18 C 322.37 133.37 316.31 133.44 312.68 135.71 C 310.18 138.95 310.64 143.73 307.64 146.67 C 303.72 149.52 298.32 147.76 294.21 150.17 C 293.29 152.19 292.14 154.76 293.85 156.69 C 298.37 154.97 303.56 153.91 308.31 155.32 C 302.47 155.91 296.35 156.01 291.11 159.01 C 286.95 160.87 284.32 164.70 280.84 167.44 C 283.20 162.87 287.35 159.30 292.13 157.44 C 292.17 154.78 291.73 151.77 293.43 149.50 C 297.32 146.65 302.71 148.49 306.75 146.03 C 310.03 142.99 309.03 137.52 312.43 134.60 Z" />
<path fill="#ffffff" opacity="1.00" d=" M 309.40 153.62 C 316.26 150.28 323.90 149.84 331.38 150.65 C 333.91 153.49 336.43 156.37 338.53 159.56 C 339.99 161.64 339.60 164.33 340.40 166.65 C 342.53 169.34 345.41 171.31 347.77 173.80 C 346.37 175.55 344.62 177.11 343.72 179.19 C 345.01 186.34 348.34 192.98 349.54 200.16 C 349.10 201.61 347.53 202.70 346.02 202.51 C 342.47 201.68 338.62 201.45 335.41 199.60 C 332.25 197.02 330.36 193.29 327.79 190.20 C 325.40 186.94 322.30 183.96 321.16 179.98 C 320.61 174.64 324.02 169.30 321.91 164.06 C 319.94 158.63 314.78 155.11 309.40 153.62 M 329.43 164.46 C 327.06 165.29 326.27 168.10 324.90 169.93 C 328.53 168.41 332.37 167.39 336.32 167.33 C 336.95 166.24 337.59 165.15 338.24 164.06 C 335.31 164.44 332.35 164.13 329.43 164.46 M 328.77 172.26 C 331.42 172.80 334.11 173.05 336.82 173.02 C 336.38 172.66 335.50 171.95 335.06 171.60 C 335.69 170.90 336.32 170.21 336.95 169.51 C 334.09 170.00 331.30 170.82 328.77 172.26 Z" />
<path fill="#ffffff" opacity="1.00" d=" M 291.34 166.20 C 295.71 160.56 303.53 159.01 310.31 159.31 C 307.58 160.83 304.33 160.39 301.40 161.20 C 297.67 162.04 294.72 164.59 291.34 166.20 Z" />
<path fill="#ffffff" opacity="1.00" d=" M 362.84 199.17 C 366.63 198.13 370.42 197.04 374.14 195.75 C 386.00 197.78 397.83 200.22 409.16 204.39 C 408.75 204.90 407.94 205.92 407.53 206.44 C 408.28 206.17 409.78 205.63 410.53 205.36 L 410.87 205.26 C 413.12 206.08 415.35 207.00 417.56 207.93 C 409.57 213.83 401.49 219.62 393.47 225.48 C 389.89 228.16 385.96 230.46 383.03 233.90 C 384.66 233.33 386.28 232.70 387.69 231.68 C 398.18 223.99 408.70 216.34 419.24 208.73 C 429.37 213.95 439.03 220.32 446.84 228.69 C 441.65 230.99 436.27 233.13 431.84 236.77 C 427.41 240.22 423.88 245.21 423.42 250.94 C 422.41 261.41 427.12 271.19 431.51 280.37 C 436.62 291.73 442.90 302.62 446.56 314.59 C 452.17 331.60 450.96 350.33 445.30 367.17 C 441.91 377.69 436.90 387.59 432.84 397.86 C 429.15 407.08 426.39 416.65 424.63 426.43 C 403.45 382.62 391.03 335.37 375.50 289.43 C 373.97 283.93 371.34 278.69 370.63 273.00 C 372.82 271.31 375.65 271.04 378.31 270.74 C 382.22 270.32 386.39 270.60 390.01 268.83 C 391.97 267.96 392.29 265.67 392.94 263.88 C 381.36 260.67 369.25 260.80 357.40 259.51 C 364.98 247.05 364.25 231.87 363.11 217.89 C 362.27 211.68 362.22 205.40 362.84 199.17 Z" />
<path fill="#ffffff" opacity="1.00" d=" M 332.52 207.28 C 335.46 206.57 338.40 205.91 341.39 205.42 C 336.69 212.15 331.57 218.63 327.61 225.85 C 323.31 226.72 318.91 226.44 314.58 225.91 C 314.41 223.94 314.19 221.99 314.02 220.03 C 319.94 215.49 327.24 212.83 332.43 207.38 L 332.52 207.28 Z" />
<path fill="#ffffff" opacity="1.00" d=" M 339.84 276.80 C 341.21 275.60 342.51 274.32 343.83 273.06 C 344.53 272.96 345.93 272.78 346.63 272.69 C 345.37 279.04 343.65 285.49 340.16 291.01 C 335.92 296.37 329.62 299.50 323.85 302.91 C 319.12 305.28 314.83 308.78 309.46 309.53 C 301.66 314.65 293.17 318.87 283.92 320.53 L 283.86 320.49 C 281.37 318.99 278.66 317.38 277.92 314.35 C 279.57 313.74 281.22 313.15 282.88 312.56 C 285.70 313.55 288.52 315.79 291.65 314.84 C 293.52 314.23 295.31 313.45 297.12 312.68 C 293.34 311.19 289.48 309.91 285.73 308.34 L 286.63 307.57 C 289.89 307.41 293.35 308.25 296.36 306.58 C 308.47 303.61 322.35 302.99 331.87 293.93 C 336.84 289.65 339.11 283.15 339.84 276.80 Z" />
<path fill="#ffffff" opacity="1.00" d=" M 479.24 277.28 C 490.73 293.88 496.40 313.96 497.66 333.97 C 499.42 371.20 487.14 408.90 464.21 438.24 C 453.75 451.18 440.60 462.56 424.83 468.38 C 439.69 415.44 467.72 366.60 476.47 311.88 C 478.23 300.43 478.95 288.85 479.24 277.28 Z" />
<path fill="#ffffff" opacity="1.00" d=" M 314.03 310.09 C 320.66 306.04 327.77 302.77 334.13 298.27 C 338.23 310.38 339.79 323.30 339.33 336.05 C 338.13 357.01 332.64 377.53 325.11 397.05 C 315.22 382.26 303.21 369.06 290.93 356.25 C 295.70 345.70 300.19 335.02 304.12 324.13 C 306.09 318.71 308.96 313.20 314.03 310.09 Z" />
<path fill="#ffffff" opacity="1.00" d=" M 248.21 304.16 C 252.58 303.81 256.96 303.78 261.34 303.51 C 258.43 310.82 253.78 317.93 246.63 321.63 C 241.32 324.13 235.43 325.59 229.53 325.29 C 229.51 322.94 229.51 320.60 229.59 318.26 C 233.54 317.40 237.13 315.40 239.36 311.95 C 237.79 310.58 236.15 309.30 234.60 307.92 C 238.92 305.99 243.52 304.75 248.21 304.16 Z" />
<path fill="#ffffff" opacity="1.00" d=" M 206.68 337.89 C 210.78 329.04 218.28 321.10 227.99 318.72 C 229.11 327.40 225.25 335.70 221.07 343.05 C 218.29 345.42 214.24 345.46 210.80 346.28 C 211.55 342.47 212.27 338.66 212.94 334.84 C 210.86 335.86 208.78 336.89 206.68 337.89 Z" />
<path fill="#ffffff" opacity="1.00" d=" M 229.21 327.99 C 230.17 330.96 231.30 333.88 232.44 336.79 C 229.23 343.45 227.21 350.67 226.78 358.07 C 226.79 360.04 225.37 361.54 224.38 363.12 C 220.47 368.47 217.69 374.51 214.11 380.07 C 213.72 366.15 218.37 352.70 224.23 340.28 C 226.19 336.31 227.88 332.21 229.21 327.99 Z" />
<path fill="#ffffff" opacity="1.00" d=" M 244.88 335.57 C 252.81 333.31 261.86 333.63 269.14 337.76 C 265.26 337.62 261.78 335.47 257.89 335.35 C 253.55 334.75 249.20 336.28 244.88 335.57 Z" />
<path fill="#ffffff" opacity="1.00" d=" M 249.25 345.96 C 254.39 342.39 260.95 340.53 267.12 342.14 C 274.25 343.98 280.06 348.83 285.57 353.48 C 293.05 360.31 299.92 367.76 306.57 375.39 C 319.90 390.79 332.03 407.78 338.98 427.08 C 340.76 433.17 343.44 440.61 339.31 446.32 C 334.99 450.59 328.48 451.49 322.78 452.53 C 322.18 452.12 321.00 451.28 320.40 450.86 C 323.73 448.92 327.58 447.97 330.75 445.77 C 333.86 443.27 333.32 438.73 331.35 435.70 C 327.55 429.25 323.92 422.65 319.23 416.80 C 317.27 414.16 314.29 412.71 311.23 411.76 C 310.68 414.46 310.15 417.17 309.60 419.88 C 305.72 419.09 301.92 417.70 298.81 415.18 C 289.10 407.68 280.26 399.09 272.17 389.87 C 265.01 382.61 258.55 374.70 252.40 366.57 C 249.90 363.13 247.39 359.32 247.15 354.95 C 247.23 351.84 248.43 348.92 249.25 345.96 Z" />
<path fill="#ffffff" opacity="1.00" d=" M 347.58 360.39 C 350.53 362.96 352.08 366.68 354.14 369.94 C 374.13 405.62 383.33 445.83 395.85 484.44 C 377.24 490.30 357.52 491.98 338.09 491.25 C 327.25 490.68 316.17 489.25 306.31 484.44 C 309.81 474.90 313.77 465.50 316.65 455.74 L 316.52 457.64 L 317.42 456.22 C 324.26 453.04 332.48 453.25 338.76 448.76 C 343.15 445.71 343.32 439.76 342.55 434.98 C 340.88 426.16 337.11 417.89 332.93 410.00 C 338.42 393.65 343.56 377.16 347.58 360.39 Z" />
<path fill="#ffffff" opacity="1.00" d=" M 237.28 402.77 C 241.80 400.84 246.77 400.15 251.13 397.79 L 251.92 397.78 C 253.70 398.76 254.99 400.41 256.49 401.76 C 250.00 404.50 243.20 406.44 236.78 409.35 C 236.12 407.25 234.92 404.25 237.28 402.77 Z" />
<path fill="#ffffff" opacity="1.00" d=" M 240.51 409.31 C 245.84 407.04 251.41 405.42 256.73 403.13 C 259.92 413.43 263.87 423.49 267.07 433.80 C 257.87 437.93 248.56 441.90 238.85 444.70 C 232.84 437.71 227.36 430.30 222.38 422.54 L 222.13 422.16 C 225.03 418.91 229.06 417.40 233.15 416.32 C 237.01 415.55 236.84 410.31 240.51 409.31 Z" />
<path fill="#ffffff" opacity="1.00" d=" M 189.80 423.71 C 195.55 419.14 202.39 416.34 208.88 413.04 C 210.67 415.30 212.17 418.21 215.10 419.16 C 217.83 420.18 220.73 419.35 223.50 418.98 C 218.83 423.69 213.66 428.20 207.36 430.56 C 204.43 431.66 200.92 431.47 198.49 433.69 C 193.00 438.19 188.68 444.28 181.95 447.13 C 177.65 446.14 173.44 444.45 170.24 441.32 C 176.57 435.25 182.90 429.14 189.80 423.71 Z" />
<path fill="#ffffff" opacity="1.00" d=" M 259.89 463.40 C 265.49 463.20 271.09 463.03 276.69 462.78 C 278.07 466.72 279.33 470.69 280.50 474.70 C 273.19 471.78 266.48 467.64 259.89 463.40 Z" />
</g>
<g id="#203414ff">
<path fill="#203414" opacity="1.00" d=" M 526.02 97.05 C 531.19 95.79 536.05 93.42 541.38 92.77 C 540.97 94.92 540.86 97.44 538.95 98.86 C 535.34 101.59 531.21 103.52 527.19 105.56 C 528.00 107.76 528.90 110.85 526.47 112.39 C 520.19 116.05 513.21 118.35 506.98 122.14 C 500.69 125.91 493.17 122.98 486.41 124.44 C 477.77 130.41 469.66 137.18 460.94 143.08 L 461.28 143.28 C 457.65 145.18 454.55 147.91 451.16 150.17 C 444.65 154.68 437.50 158.23 430.10 161.02 C 427.28 162.09 424.40 163.16 421.98 165.02 C 407.14 176.79 391.95 188.78 374.14 195.75 C 370.42 197.04 366.63 198.13 362.84 199.17 C 362.22 205.40 362.27 211.68 363.11 217.89 C 364.25 231.87 364.98 247.05 357.40 259.51 C 356.92 260.38 356.40 261.21 355.89 262.05 C 353.86 265.62 350.33 268.13 348.60 271.85 C 346.05 280.21 344.89 290.16 337.43 295.83 C 336.35 296.67 335.24 297.47 334.13 298.27 C 327.77 302.77 320.66 306.04 314.03 310.09 C 308.96 313.20 306.09 318.71 304.12 324.13 C 300.19 335.02 295.70 345.70 290.93 356.25 C 303.21 369.06 315.22 382.26 325.11 397.05 L 324.73 398.08 L 325.60 397.45 C 327.86 401.74 330.62 405.73 332.93 410.00 C 337.11 417.89 340.88 426.16 342.55 434.98 C 343.32 439.76 343.15 445.71 338.76 448.76 C 332.48 453.25 324.26 453.04 317.42 456.22 L 316.52 457.64 L 316.65 455.74 C 312.83 458.01 308.38 458.71 304.11 459.68 C 295.06 461.39 285.88 462.32 276.69 462.78 C 271.09 463.03 265.49 463.20 259.89 463.40 C 251.24 463.69 242.59 463.52 233.95 463.35 C 229.54 463.21 225.15 464.19 221.22 466.18 C 213.67 469.97 207.01 475.24 200.00 479.92 C 195.22 483.01 191.14 487.18 185.90 489.55 C 183.40 489.93 182.06 487.48 182.17 485.32 C 182.90 480.30 184.09 475.20 186.85 470.87 C 190.19 465.66 193.97 460.74 197.80 455.87 C 200.55 452.50 200.25 447.86 202.03 444.05 C 203.38 441.36 206.32 438.64 209.56 439.54 C 213.99 441.14 217.62 444.48 222.21 445.76 C 227.69 447.48 233.48 446.19 238.85 444.70 C 248.56 441.90 257.87 437.93 267.07 433.80 C 274.36 430.29 282.09 427.87 289.82 425.54 C 281.44 419.76 272.45 414.89 264.53 408.47 C 261.96 406.66 259.83 404.03 256.73 403.13 C 251.41 405.42 245.84 407.04 240.51 409.31 C 236.84 410.31 237.01 415.55 233.15 416.32 C 229.06 417.40 225.03 418.91 222.13 422.16 L 222.38 422.54 C 217.21 426.80 211.79 431.29 205.04 432.67 C 199.19 433.52 195.60 438.56 191.53 442.28 C 188.92 444.88 185.81 446.89 182.59 448.65 C 176.02 452.35 170.27 457.31 164.81 462.47 C 156.34 470.46 148.54 479.12 140.41 487.44 C 135.59 492.36 132.90 498.79 130.37 505.07 C 129.01 508.13 128.00 511.46 125.73 514.01 C 124.35 515.54 122.06 514.79 120.64 513.73 C 116.12 510.24 113.47 504.61 113.12 498.97 C 113.41 492.71 118.35 488.30 121.32 483.23 C 122.43 478.59 119.05 473.48 122.14 469.14 C 123.43 466.03 126.97 465.43 129.95 465.90 C 134.03 466.13 138.62 466.77 142.13 464.16 C 148.06 459.75 151.56 453.00 155.39 446.86 C 160.17 438.70 164.61 430.35 169.17 422.07 C 172.42 415.98 175.90 409.78 181.32 405.31 C 186.27 400.85 192.62 398.50 198.93 396.67 C 190.83 369.60 185.66 340.48 192.40 312.52 C 183.22 314.11 175.60 320.95 166.01 320.88 C 158.00 321.31 151.35 316.07 145.97 310.76 C 139.94 317.05 133.94 323.37 127.94 329.69 C 108.54 350.29 89.09 370.84 69.85 391.59 C 69.74 384.97 69.74 378.34 69.63 371.72 C 58.82 378.46 49.30 387.16 38.30 393.57 C 39.10 392.30 40.01 391.10 41.26 390.27 C 50.70 383.42 60.15 376.59 69.56 369.71 C 70.12 362.62 72.53 355.60 77.03 350.03 C 82.13 343.86 88.31 338.67 93.42 332.53 C 96.67 321.97 100.36 310.64 109.16 303.29 C 116.81 297.45 125.14 292.54 133.73 288.23 C 137.11 286.58 140.30 284.56 143.27 282.26 C 161.24 268.62 178.96 254.66 196.67 240.70 C 213.93 227.25 234.66 215.53 257.27 216.80 C 263.41 206.02 269.78 194.69 280.35 187.63 C 277.62 183.18 274.63 178.34 275.27 172.88 C 275.59 165.71 280.70 160.11 285.87 155.70 C 283.97 151.73 282.34 146.52 285.83 142.89 C 289.93 137.90 296.93 141.26 302.17 139.26 C 304.00 134.64 303.12 128.68 307.13 125.09 C 311.78 121.52 318.26 122.95 323.36 124.76 C 329.02 127.18 334.86 131.01 337.16 136.98 C 337.71 141.81 335.17 146.32 333.38 150.66 C 336.35 154.44 340.28 157.92 341.23 162.85 C 341.57 164.27 341.84 165.72 342.13 167.16 C 345.07 164.37 347.95 161.37 351.65 159.58 C 356.73 157.09 362.48 156.48 368.07 156.45 C 373.31 156.48 377.68 153.23 382.37 151.35 C 386.42 149.24 391.74 148.33 393.89 143.80 C 398.77 135.33 406.20 128.33 415.05 124.14 C 421.14 121.61 427.65 120.41 433.99 118.69 C 464.61 111.24 495.34 104.26 526.02 97.05 M 527.12 98.23 C 496.25 105.66 465.23 112.40 434.48 120.31 C 438.87 122.74 443.83 124.91 446.49 129.42 C 449.98 135.45 449.69 142.70 449.38 149.42 C 461.43 141.23 472.99 132.35 484.76 123.77 C 490.42 121.07 496.97 123.76 502.89 122.25 C 506.14 121.28 508.96 119.32 511.98 117.85 C 516.16 115.71 520.64 114.20 524.69 111.81 C 526.30 111.12 526.44 109.23 527.05 107.82 C 519.85 108.10 513.83 112.78 506.80 113.75 C 508.03 112.61 509.48 111.74 511.09 111.22 C 519.67 108.33 527.53 103.74 535.49 99.49 C 537.62 98.52 539.02 96.63 540.00 94.56 C 535.57 95.30 531.43 97.08 527.12 98.23 M 404.17 133.26 C 399.52 137.38 396.30 142.73 392.93 147.87 C 387.93 150.74 382.46 152.73 377.28 155.25 C 374.62 156.38 372.04 158.17 369.02 157.98 C 362.99 157.78 356.76 158.52 351.35 161.36 C 348.32 162.98 345.95 165.54 343.61 167.99 C 345.48 169.83 348.17 171.25 348.88 173.97 C 348.14 176.11 346.36 177.65 344.95 179.35 C 346.89 186.52 349.94 193.50 350.67 200.93 C 349.50 204.56 344.57 203.70 342.60 206.58 C 339.06 210.86 335.96 215.49 332.83 220.07 C 329.16 225.45 326.49 231.45 322.71 236.75 C 320.41 239.98 316.99 242.88 312.79 242.69 C 314.96 241.20 317.47 240.22 319.46 238.47 C 322.61 235.39 324.60 231.40 326.63 227.55 C 322.69 227.64 318.74 227.58 314.80 227.44 C 315.08 231.33 315.81 235.21 315.47 239.12 C 313.23 235.68 314.14 231.14 313.43 227.24 C 310.51 226.65 307.59 226.06 304.68 225.45 L 304.88 225.33 C 300.88 224.02 297.20 221.96 293.70 219.66 C 294.37 223.45 295.51 227.16 297.26 230.60 C 299.64 236.30 303.57 241.02 308.20 245.05 C 309.84 244.76 311.49 244.49 313.16 244.33 C 311.40 245.68 309.38 246.62 307.28 247.30 C 303.08 248.74 299.06 250.74 294.70 251.68 C 296.00 249.33 298.93 249.13 301.13 248.10 C 291.54 240.34 279.74 235.21 267.57 233.22 C 264.34 237.04 263.33 242.04 262.19 246.77 C 268.29 246.56 275.43 244.76 280.84 248.38 C 272.61 247.42 263.81 246.54 256.16 250.43 C 246.95 254.01 239.39 262.38 238.16 272.37 C 233.42 274.29 228.37 275.97 224.58 279.55 C 221.05 283.01 220.47 288.15 218.29 292.36 C 214.09 296.16 209.36 299.36 205.19 303.22 C 201.22 306.89 195.33 309.17 193.68 314.78 C 191.57 322.26 190.73 330.20 191.21 337.94 C 195.05 344.68 203.48 347.01 210.80 346.28 C 214.24 345.46 218.29 345.42 221.07 343.05 C 225.25 335.70 229.11 327.40 227.99 318.72 C 227.98 316.42 228.12 314.13 228.48 311.87 C 229.79 313.76 229.58 316.07 229.59 318.26 C 229.51 320.60 229.51 322.94 229.53 325.29 C 235.43 325.59 241.32 324.13 246.63 321.63 C 253.78 317.93 258.43 310.82 261.34 303.51 C 256.96 303.78 252.58 303.81 248.21 304.16 C 246.33 304.12 244.45 304.01 242.59 303.78 C 243.44 302.83 244.64 302.40 245.91 302.45 C 254.08 302.00 262.34 302.43 270.37 300.61 C 276.23 299.53 282.37 298.82 287.58 295.72 C 293.45 291.89 296.46 285.26 299.20 279.08 C 299.67 277.80 300.54 276.75 301.59 275.92 C 300.56 280.00 298.75 283.87 296.43 287.37 L 296.51 287.86 C 294.46 290.89 292.41 294.06 289.38 296.21 C 285.79 298.93 281.27 299.78 277.04 300.97 C 281.89 306.42 289.62 306.50 296.36 306.58 C 293.35 308.25 289.89 307.41 286.63 307.57 L 286.96 307.29 C 283.43 307.00 280.33 305.35 277.27 303.76 C 278.42 305.82 279.64 307.91 281.44 309.49 C 284.30 312.18 288.25 313.05 291.65 314.84 C 288.52 315.79 285.70 313.55 282.88 312.56 C 278.99 309.88 276.23 305.86 274.99 301.32 C 271.04 301.88 267.10 302.52 263.18 303.29 C 260.55 309.32 257.14 315.01 252.51 319.72 C 256.74 321.78 261.23 323.47 265.95 323.94 C 279.19 325.26 292.73 322.48 304.58 316.51 C 306.90 315.43 308.27 313.14 309.79 311.21 C 307.25 312.50 304.79 313.94 302.30 315.33 C 295.47 319.22 287.77 321.28 280.13 322.89 C 274.71 324.15 269.03 320.28 267.95 314.91 C 270.23 316.68 271.86 319.17 274.27 320.78 C 277.30 322.22 280.80 321.42 283.86 320.49 L 283.92 320.53 C 293.17 318.87 301.66 314.65 309.46 309.53 C 314.83 308.78 319.12 305.28 323.85 302.91 C 329.62 299.50 335.92 296.37 340.16 291.01 C 343.65 285.49 345.37 279.04 346.63 272.69 L 346.65 272.69 C 347.05 270.95 347.65 269.23 349.07 268.05 C 358.25 258.80 363.06 245.45 362.14 232.48 C 362.93 222.59 360.27 212.81 361.14 202.93 C 361.41 199.63 361.01 196.32 361.08 193.01 C 361.34 185.50 363.62 178.27 365.57 171.07 C 366.47 168.33 366.96 165.30 368.89 163.04 C 368.86 166.75 367.03 170.09 366.49 173.71 C 363.89 181.39 362.27 189.48 362.49 197.61 C 382.54 193.13 399.40 180.62 415.36 168.31 C 418.58 165.56 422.62 163.48 424.61 159.57 C 426.53 157.21 427.42 153.22 424.79 151.01 C 422.03 148.91 418.43 150.54 415.53 151.39 L 414.40 150.87 L 415.32 151.25 C 416.86 148.22 420.75 148.87 423.57 148.47 C 425.01 149.61 426.82 150.56 427.49 152.40 C 428.82 155.39 426.92 158.42 425.86 161.16 C 433.35 158.20 440.82 155.06 447.66 150.77 C 447.87 148.43 448.02 146.08 448.14 143.74 C 447.94 138.59 447.80 132.89 444.34 128.72 C 440.77 124.61 435.55 121.61 430.05 121.42 C 420.57 122.87 411.19 126.57 404.17 133.26 M 312.43 134.60 C 309.03 137.52 310.03 142.99 306.75 146.03 C 302.71 148.49 297.32 146.65 293.43 149.50 C 291.73 151.77 292.17 154.78 292.13 157.44 C 287.35 159.30 283.20 162.87 280.84 167.44 C 284.32 164.70 286.95 160.87 291.11 159.01 C 296.35 156.01 302.47 155.91 308.31 155.32 C 303.56 153.91 298.37 154.97 293.85 156.69 C 292.14 154.76 293.29 152.19 294.21 150.17 C 298.32 147.76 303.72 149.52 307.64 146.67 C 310.64 143.73 310.18 138.95 312.68 135.71 C 316.31 133.44 322.37 133.37 325.02 137.18 C 326.92 141.28 324.19 145.49 322.88 149.33 C 326.25 146.55 327.15 141.59 326.36 137.49 C 324.02 132.42 316.77 132.07 312.43 134.60 M 309.40 153.62 C 309.74 159.38 315.20 162.81 317.05 167.97 C 317.39 172.01 313.63 174.50 311.03 176.94 C 311.36 178.25 311.51 179.58 311.51 180.93 C 310.45 182.28 308.76 183.18 307.02 183.06 C 304.66 181.45 303.10 178.88 300.65 177.39 C 296.44 175.85 291.58 180.79 293.24 184.99 C 294.71 188.24 297.66 190.57 300.69 192.32 C 303.20 193.81 306.22 192.65 308.96 192.91 C 312.26 197.67 313.52 203.63 317.21 208.22 C 327.12 206.87 336.99 205.05 346.68 202.64 L 346.02 202.51 C 347.53 202.70 349.10 201.61 349.54 200.16 C 348.34 192.98 345.01 186.34 343.72 179.19 C 344.62 177.11 346.37 175.55 347.77 173.80 C 345.41 171.31 342.53 169.34 340.40 166.65 C 339.60 164.33 339.99 161.64 338.53 159.56 C 336.43 156.37 333.91 153.49 331.38 150.65 C 323.90 149.84 316.26 150.28 309.40 153.62 M 291.34 166.20 C 294.72 164.59 297.67 162.04 301.40 161.20 C 304.33 160.39 307.58 160.83 310.31 159.31 C 303.53 159.01 295.71 160.56 291.34 166.20 M 258.82 217.22 C 260.64 217.64 262.45 218.06 264.27 218.50 C 267.76 214.55 270.73 210.08 274.91 206.80 C 279.69 202.89 285.46 200.52 291.17 198.35 C 287.97 195.16 284.57 192.17 281.55 188.81 C 270.91 195.36 264.81 206.69 258.82 217.22 M 277.57 206.66 C 272.84 209.92 269.30 214.51 265.81 218.98 C 267.83 219.78 269.81 220.85 272.01 221.10 C 274.63 219.38 276.65 216.88 279.36 215.26 C 282.83 213.01 286.87 211.98 290.80 210.87 C 291.20 207.27 291.12 203.66 291.01 200.06 C 286.28 201.69 281.64 203.72 277.57 206.66 M 292.90 199.58 C 292.48 205.32 292.16 211.23 293.63 216.85 C 298.32 222.63 306.17 224.55 313.18 225.81 C 312.95 221.20 312.17 216.65 311.85 212.06 C 311.83 210.89 311.52 209.54 312.51 208.65 C 313.60 212.34 313.68 216.22 314.02 220.03 C 314.19 221.99 314.41 223.94 314.58 225.91 C 318.91 226.44 323.31 226.72 327.61 225.85 C 331.57 218.63 336.69 212.15 341.39 205.42 C 338.40 205.91 335.46 206.57 332.52 207.28 L 332.43 207.38 C 327.29 207.76 322.31 209.50 317.15 209.48 C 313.95 207.26 312.68 203.34 310.99 200.00 C 308.35 202.02 305.40 204.27 301.87 203.99 C 298.46 203.58 295.69 201.39 292.90 199.58 M 275.79 219.72 C 275.25 220.46 273.39 221.32 274.35 222.38 C 281.66 225.88 288.97 229.43 295.89 233.67 C 293.99 226.68 291.93 219.69 291.25 212.45 C 285.49 213.18 280.06 215.80 275.79 219.72 M 235.12 221.01 C 219.31 225.92 205.46 235.43 192.72 245.76 C 176.45 258.46 160.29 271.33 143.79 283.74 C 138.38 288.01 131.89 290.50 126.00 294.00 C 120.19 297.38 114.40 300.91 109.25 305.25 C 102.14 311.83 98.07 321.04 95.85 330.33 C 112.82 317.21 129.11 303.23 145.81 289.76 C 149.66 286.83 153.03 283.20 157.39 280.98 C 156.72 282.09 156.05 283.24 155.01 284.06 C 135.41 300.13 115.73 316.10 96.19 332.24 C 90.45 337.50 85.28 343.34 79.82 348.87 C 74.75 354.10 71.89 361.12 71.06 368.30 C 80.12 362.83 87.88 355.40 97.15 350.31 C 96.28 351.68 95.22 352.94 93.85 353.83 C 87.23 358.53 80.70 363.35 74.10 368.08 C 72.90 369.13 70.99 370.03 71.07 371.89 C 70.86 377.18 71.04 382.48 71.28 387.77 C 99.50 358.14 127.12 327.93 155.60 298.55 C 169.28 284.55 182.64 270.06 198.44 258.40 C 213.75 247.21 230.25 236.61 249.01 232.43 C 266.06 228.89 284.01 234.34 297.96 244.28 C 298.41 243.89 298.85 243.49 299.30 243.10 C 296.57 241.87 294.33 239.86 291.88 238.20 C 282.89 232.14 272.64 227.78 261.87 226.29 C 256.95 225.59 252.00 226.30 247.08 226.43 C 249.89 224.17 253.73 224.61 257.10 224.54 C 273.85 225.19 289.39 233.37 301.90 244.11 C 303.31 245.09 304.65 247.06 306.66 245.90 C 297.43 233.64 282.68 227.79 269.11 221.76 C 258.44 216.83 246.11 217.65 235.12 221.01 M 300.26 245.26 C 300.49 245.49 300.49 245.49 300.26 245.26 M 265.94 325.48 C 260.73 324.96 255.87 322.85 251.20 320.59 C 248.80 321.98 246.38 323.34 243.96 324.71 C 249.97 328.55 256.83 331.27 264.04 331.47 C 276.18 331.83 288.28 329.46 299.78 325.66 C 303.13 324.93 303.40 320.96 304.57 318.35 C 292.48 323.66 279.18 326.72 265.94 325.48 M 228.86 326.94 L 229.21 327.99 C 227.88 332.21 226.19 336.31 224.23 340.28 C 218.37 352.70 213.72 366.15 214.11 380.07 C 217.69 374.51 220.47 368.47 224.38 363.12 C 225.37 361.54 226.79 360.04 226.78 358.07 C 227.21 350.67 229.23 343.45 232.44 336.79 C 234.41 332.87 236.94 329.27 239.72 325.89 C 236.13 326.50 232.50 326.78 228.86 326.94 M 244.88 335.57 C 249.20 336.28 253.55 334.75 257.89 335.35 C 261.78 335.47 265.26 337.62 269.14 337.76 C 261.86 333.63 252.81 333.31 244.88 335.57 M 191.02 340.92 C 190.58 354.41 193.34 367.72 196.24 380.82 C 197.89 387.69 199.28 394.82 203.08 400.91 C 206.24 406.03 209.14 411.37 213.00 416.01 C 215.35 418.68 219.34 418.16 222.49 417.65 C 226.39 416.72 230.50 416.14 234.05 414.17 C 236.08 413.28 235.37 410.80 235.72 409.09 C 234.24 406.41 231.79 404.56 229.22 403.04 C 230.80 402.01 232.42 401.05 234.05 400.11 C 233.46 401.24 232.86 402.36 232.24 403.49 C 232.91 403.78 234.25 404.37 234.93 404.66 C 235.31 403.13 235.55 401.58 235.65 400.02 C 233.61 396.90 230.85 394.31 228.09 391.83 C 224.63 389.09 219.88 390.37 215.94 389.05 C 212.53 385.34 212.51 379.79 212.52 375.04 C 213.34 364.84 216.21 354.88 220.22 345.50 C 216.58 346.54 212.88 347.32 209.13 347.76 C 205.88 347.56 202.54 347.57 199.45 346.44 C 196.25 345.28 193.65 343.01 191.02 340.92 M 249.25 345.96 C 242.68 350.23 235.50 355.45 233.57 363.50 C 232.28 372.61 237.79 380.89 243.64 387.33 C 250.35 394.64 257.84 401.21 265.63 407.35 C 274.31 414.21 283.99 419.60 293.15 425.78 C 304.23 432.79 315.03 441.02 328.13 443.81 C 326.02 445.16 323.63 444.01 321.47 443.45 C 310.63 439.89 301.64 432.60 291.93 426.86 C 287.14 427.74 282.45 429.13 277.98 431.07 C 277.03 431.40 276.43 432.07 276.18 433.07 C 273.95 439.79 273.84 447.75 278.29 453.64 C 281.01 457.20 284.94 461.48 289.92 460.24 C 301.32 459.40 312.25 456.08 323.11 452.76 L 322.78 452.53 C 328.48 451.49 334.99 450.59 339.31 446.32 C 343.44 440.61 340.76 433.17 338.98 427.08 C 332.03 407.78 319.90 390.79 306.57 375.39 C 299.92 367.76 293.05 360.31 285.57 353.48 C 280.06 348.83 274.25 343.98 267.12 342.14 C 260.95 340.53 254.39 342.39 249.25 345.96 M 215.43 381.33 C 214.16 383.44 215.08 386.55 217.23 387.69 C 219.44 388.13 221.70 388.17 223.92 388.50 C 229.26 388.93 232.28 393.90 235.71 397.36 C 237.29 398.73 237.11 400.87 237.28 402.77 C 234.92 404.25 236.12 407.25 236.78 409.35 C 243.20 406.44 250.00 404.50 256.49 401.76 C 254.99 400.41 253.70 398.76 251.92 397.78 L 251.13 397.79 L 251.29 397.27 C 244.99 390.95 238.35 384.68 234.31 376.58 C 231.04 372.12 228.11 367.38 226.95 361.89 C 222.74 368.14 218.89 374.64 215.43 381.33 M 185.25 404.21 C 176.65 409.96 172.08 419.59 167.54 428.52 C 165.99 432.93 168.22 437.46 170.24 441.32 C 173.44 444.45 177.65 446.14 181.95 447.13 C 188.68 444.28 193.00 438.19 198.49 433.69 C 200.92 431.47 204.43 431.66 207.36 430.56 C 213.66 428.20 218.83 423.69 223.50 418.98 C 220.73 419.35 217.83 420.18 215.10 419.16 C 212.17 418.21 210.67 415.30 208.88 413.04 C 205.71 408.16 202.62 403.21 199.85 398.09 C 194.74 399.44 189.61 401.12 185.25 404.21 M 235.21 447.32 C 228.36 448.95 220.85 448.10 214.96 444.09 C 212.24 442.78 209.05 439.60 205.98 441.75 C 201.29 444.98 202.91 451.56 199.77 455.77 C 195.63 461.31 191.23 466.69 187.62 472.61 C 185.06 477.14 183.79 482.34 183.78 487.54 C 188.06 488.13 190.96 484.33 194.16 482.17 C 201.18 477.20 208.18 472.19 215.44 467.60 C 220.76 464.37 226.67 461.50 233.05 461.81 C 249.63 462.19 266.23 462.00 282.77 460.79 C 279.72 457.32 276.00 454.21 274.45 449.70 C 272.09 444.22 273.56 438.20 274.36 432.55 C 261.39 437.67 248.78 443.90 235.21 447.32 M 146.90 461.91 C 143.97 465.38 139.65 467.99 134.97 467.52 C 131.53 467.87 127.41 466.28 124.48 468.56 C 120.69 472.65 123.56 478.33 122.97 483.15 C 121.29 487.46 117.46 490.55 115.69 494.86 C 113.56 499.28 115.24 504.45 117.71 508.37 C 119.22 510.60 121.12 513.11 123.97 513.53 C 126.44 511.41 128.29 508.10 128.47 504.86 C 130.94 500.46 132.56 495.62 135.34 491.39 C 137.63 487.74 140.92 484.90 143.82 481.77 C 155.10 469.89 166.24 457.67 179.73 448.21 C 175.96 446.85 172.36 445.04 169.18 442.59 C 167.64 439.49 166.35 436.27 165.17 433.02 C 159.29 442.77 154.37 453.22 146.90 461.91 Z" />
<path fill="#203414" opacity="1.00" d=" M 462.48 165.54 C 465.70 163.17 468.80 160.55 472.51 158.94 C 471.26 161.47 468.74 162.84 466.57 164.45 C 454.36 173.29 442.19 182.18 430.02 191.06 C 427.04 193.18 424.25 195.65 420.86 197.11 C 421.38 195.65 422.40 194.50 423.68 193.66 C 436.64 184.33 449.54 174.91 462.48 165.54 Z" />
<path fill="#203414" opacity="1.00" d=" M 329.43 164.46 C 332.35 164.13 335.31 164.44 338.24 164.06 C 337.59 165.15 336.95 166.24 336.32 167.33 C 332.37 167.39 328.53 168.41 324.90 169.93 C 326.27 168.10 327.06 165.29 329.43 164.46 Z" />
<path fill="#203414" opacity="1.00" d=" M 328.77 172.26 C 331.30 170.82 334.09 170.00 336.95 169.51 C 336.32 170.21 335.69 170.90 335.06 171.60 C 335.50 171.95 336.38 172.66 336.82 173.02 C 334.11 173.05 331.42 172.80 328.77 172.26 Z" />
<path fill="#203414" opacity="1.00" d=" M 266.19 173.22 C 267.66 172.16 269.24 171.28 270.86 170.46 C 270.07 171.68 269.29 172.97 268.05 173.80 C 252.33 185.19 236.66 196.66 220.96 208.08 C 218.02 210.20 215.21 212.58 211.87 214.08 C 212.87 211.46 215.48 210.17 217.58 208.57 C 233.80 196.80 250.00 185.02 266.19 173.22 Z" />
<path fill="#203414" opacity="1.00" d=" M 454.29 181.22 C 455.79 180.05 457.57 179.34 459.38 178.78 C 456.89 181.56 453.79 183.66 450.76 185.79 C 440.22 193.39 429.76 201.09 419.24 208.73 C 408.70 216.34 398.18 223.99 387.69 231.68 C 386.28 232.70 384.66 233.33 383.03 233.90 C 385.96 230.46 389.89 228.16 393.47 225.48 C 401.49 219.62 409.57 213.83 417.56 207.93 C 429.81 199.03 442.12 190.22 454.29 181.22 Z" />
<path fill="#203414" opacity="1.00" d=" M 409.16 204.39 C 411.76 201.96 414.73 199.87 418.16 198.80 C 416.07 201.31 413.49 203.33 410.87 205.26 L 410.53 205.36 C 409.78 205.63 408.28 206.17 407.53 206.44 C 407.94 205.92 408.75 204.90 409.16 204.39 Z" />
<path fill="#203414" opacity="1.00" d=" M 195.12 225.83 C 198.01 222.19 202.02 219.62 206.13 217.55 C 203.69 221.51 199.40 224.19 195.12 225.83 Z" />
<path fill="#203414" opacity="1.00" d=" M 237.75 228.85 C 239.62 226.85 242.29 226.19 244.95 226.24 C 242.96 228.00 240.37 228.72 237.75 228.85 Z" />
<path fill="#203414" opacity="1.00" d=" M 333.71 280.46 C 338.64 269.96 336.93 258.10 335.52 247.02 C 339.88 256.78 339.09 268.30 336.27 278.42 C 332.14 287.85 324.77 296.41 314.84 299.85 C 308.63 301.89 302.03 303.02 295.49 302.37 C 299.44 300.66 303.85 301.03 307.99 300.14 C 315.11 298.89 322.04 295.66 326.83 290.12 C 329.55 287.23 331.79 283.93 333.71 280.46 Z" />
<path fill="#203414" opacity="1.00" d=" M 157.94 281.07 C 159.53 278.22 161.99 275.94 165.08 274.82 C 163.43 277.63 160.90 279.76 157.94 281.07 Z" />
<path fill="#203414" opacity="1.00" d=" M 168.60 344.65 C 172.05 342.15 175.31 339.31 179.29 337.68 C 176.51 341.53 172.21 343.73 168.53 346.58 C 155.84 355.71 143.35 365.10 130.56 374.08 L 130.57 374.24 C 126.85 376.88 123.37 379.96 119.16 381.80 C 119.23 381.33 119.38 380.37 119.45 379.89 C 123.45 378.08 126.60 374.83 130.28 372.47 C 143.07 363.22 155.83 353.92 168.60 344.65 Z" />
<path fill="#203414" opacity="1.00" d=" M 237.14 373.42 C 240.67 375.12 243.45 377.95 246.50 380.36 C 262.42 393.20 278.28 406.15 294.97 417.99 C 300.44 421.66 305.87 425.69 312.23 427.69 C 314.30 428.08 317.41 428.88 318.61 426.51 C 319.23 424.71 319.38 422.80 319.75 420.95 C 321.90 424.05 320.28 429.62 316.08 429.66 C 308.81 429.72 302.88 424.77 297.04 421.09 C 278.67 408.31 261.22 394.26 243.88 380.14 C 241.49 378.06 238.52 376.40 237.14 373.42 Z" />
<path fill="#203414" opacity="1.00" d=" M 107.21 389.21 C 109.53 387.57 111.72 385.52 114.60 384.96 C 111.77 388.49 107.84 391.01 103.84 393.01 C 104.41 391.32 105.81 390.20 107.21 389.21 Z" />
<path fill="#203414" opacity="1.00" d=" M 30.92 398.48 C 28.75 401.69 25.42 403.79 22.00 405.47 C 24.01 402.10 27.50 400.13 30.92 398.48 Z" />
<path fill="#203414" opacity="1.00" d=" M 290.10 451.95 C 296.72 451.89 302.74 449.07 308.47 446.06 C 307.69 448.31 305.48 449.31 303.49 450.26 C 295.77 453.79 286.76 454.49 278.58 452.22 C 282.27 450.75 286.27 452.54 290.10 451.95 Z" />
<path fill="#203414" opacity="1.00" d=" M 239.96 470.94 C 241.47 469.78 243.19 468.93 244.96 468.24 C 243.20 471.11 240.22 472.77 237.57 474.70 C 232.37 478.44 227.19 482.23 222.00 486.00 C 218.99 488.15 216.18 490.65 212.73 492.08 C 213.40 490.74 214.28 489.49 215.57 488.68 C 223.73 482.81 231.88 476.93 239.96 470.94 Z" />
<path fill="#203414" opacity="1.00" d=" M 200.98 500.57 C 202.67 497.64 205.49 495.30 208.96 494.94 C 206.74 497.37 204.08 499.41 200.98 500.57 Z" />
</g>
<g id="#ade86dff">
<path fill="#ade86d" opacity="1.00" d=" M 527.12 98.23 C 531.43 97.08 535.57 95.30 540.00 94.56 C 539.02 96.63 537.62 98.52 535.49 99.49 C 527.53 103.74 519.67 108.33 511.09 111.22 C 509.48 111.74 508.03 112.61 506.80 113.75 C 513.83 112.78 519.85 108.10 527.05 107.82 C 526.44 109.23 526.30 111.12 524.69 111.81 C 520.64 114.20 516.16 115.71 511.98 117.85 C 508.96 119.32 506.14 121.28 502.89 122.25 C 496.97 123.76 490.42 121.07 484.76 123.77 C 472.99 132.35 461.43 141.23 449.38 149.42 C 449.69 142.70 449.98 135.45 446.49 129.42 C 443.83 124.91 438.87 122.74 434.48 120.31 C 465.23 112.40 496.25 105.66 527.12 98.23 Z" />
<path fill="#ade86d" opacity="1.00" d=" M 258.82 217.22 C 264.81 206.69 270.91 195.36 281.55 188.81 C 284.57 192.17 287.97 195.16 291.17 198.35 C 285.46 200.52 279.69 202.89 274.91 206.80 C 270.73 210.08 267.76 214.55 264.27 218.50 C 262.45 218.06 260.64 217.64 258.82 217.22 Z" />
<path fill="#ade86d" opacity="1.00" d=" M 277.57 206.66 C 281.64 203.72 286.28 201.69 291.01 200.06 C 291.12 203.66 291.20 207.27 290.80 210.87 C 286.87 211.98 282.83 213.01 279.36 215.26 C 276.65 216.88 274.63 219.38 272.01 221.10 C 269.81 220.85 267.83 219.78 265.81 218.98 C 269.30 214.51 272.84 209.92 277.57 206.66 Z" />
<path fill="#ade86d" opacity="1.00" d=" M 275.79 219.72 C 280.06 215.80 285.49 213.18 291.25 212.45 C 291.93 219.69 293.99 226.68 295.89 233.67 C 288.97 229.43 281.66 225.88 274.35 222.38 C 273.39 221.32 275.25 220.46 275.79 219.72 Z" />
<path fill="#ade86d" opacity="1.00" d=" M 235.12 221.01 C 246.11 217.65 258.44 216.83 269.11 221.76 C 282.68 227.79 297.43 233.64 306.66 245.90 C 304.65 247.06 303.31 245.09 301.90 244.11 C 289.39 233.37 273.85 225.19 257.10 224.54 C 253.73 224.61 249.89 224.17 247.08 226.43 C 252.00 226.30 256.95 225.59 261.87 226.29 C 272.64 227.78 282.89 232.14 291.88 238.20 C 294.33 239.86 296.57 241.87 299.30 243.10 C 298.85 243.49 298.41 243.89 297.96 244.28 C 284.01 234.34 266.06 228.89 249.01 232.43 C 230.25 236.61 213.75 247.21 198.44 258.40 C 182.64 270.06 169.28 284.55 155.60 298.55 C 127.12 327.93 99.50 358.14 71.28 387.77 C 71.04 382.48 70.86 377.18 71.07 371.89 C 70.99 370.03 72.90 369.13 74.10 368.08 C 80.70 363.35 87.23 358.53 93.85 353.83 C 95.22 352.94 96.28 351.68 97.15 350.31 C 87.88 355.40 80.12 362.83 71.06 368.30 C 71.89 361.12 74.75 354.10 79.82 348.87 C 85.28 343.34 90.45 337.50 96.19 332.24 C 115.73 316.10 135.41 300.13 155.01 284.06 C 156.05 283.24 156.72 282.09 157.39 280.98 C 153.03 283.20 149.66 286.83 145.81 289.76 C 129.11 303.23 112.82 317.21 95.85 330.33 C 98.07 321.04 102.14 311.83 109.25 305.25 C 114.40 300.91 120.19 297.38 126.00 294.00 C 131.89 290.50 138.38 288.01 143.79 283.74 C 160.29 271.33 176.45 258.46 192.72 245.76 C 205.46 235.43 219.31 225.92 235.12 221.01 M 237.75 228.85 C 240.37 228.72 242.96 228.00 244.95 226.24 C 242.29 226.19 239.62 226.85 237.75 228.85 M 157.94 281.07 C 160.90 279.76 163.43 277.63 165.08 274.82 C 161.99 275.94 159.53 278.22 157.94 281.07 Z" />
<path fill="#ade86d" opacity="1.00" d=" M 330.11 242.16 C 333.04 239.44 336.98 237.44 341.09 237.99 C 344.86 238.36 347.78 241.47 349.14 244.84 C 351.21 249.87 350.45 255.42 349.83 260.66 C 348.40 265.04 346.29 269.17 343.83 273.06 C 342.51 274.32 341.21 275.60 339.84 276.80 C 338.66 277.36 337.47 277.90 336.27 278.42 C 339.09 268.30 339.88 256.78 335.52 247.02 C 336.93 258.10 338.64 269.96 333.71 280.46 C 330.60 279.76 326.94 279.81 324.59 277.34 C 321.14 273.86 319.97 268.73 320.26 263.96 C 320.74 255.84 324.08 247.73 330.11 242.16 Z" />
<path fill="#ade86d" opacity="1.00" d=" M 265.94 325.48 C 279.18 326.72 292.48 323.66 304.57 318.35 C 303.40 320.96 303.13 324.93 299.78 325.66 C 288.28 329.46 276.18 331.83 264.04 331.47 C 256.83 331.27 249.97 328.55 243.96 324.71 C 246.38 323.34 248.80 321.98 251.20 320.59 C 255.87 322.85 260.73 324.96 265.94 325.48 Z" />
<path fill="#ade86d" opacity="1.00" d=" M 209.13 347.76 C 212.88 347.32 216.58 346.54 220.22 345.50 C 216.21 354.88 213.34 364.84 212.52 375.04 C 212.51 379.79 212.53 385.34 215.94 389.05 C 219.88 390.37 224.63 389.09 228.09 391.83 C 230.85 394.31 233.61 396.90 235.65 400.02 C 235.55 401.58 235.31 403.13 234.93 404.66 C 234.25 404.37 232.91 403.78 232.24 403.49 C 232.86 402.36 233.46 401.24 234.05 400.11 C 232.42 401.05 230.80 402.01 229.22 403.04 C 231.79 404.56 234.24 406.41 235.72 409.09 C 230.59 410.35 225.35 411.57 220.03 411.42 C 218.02 411.55 216.60 410.00 215.46 408.59 C 209.69 401.17 205.51 392.40 204.17 383.05 C 202.00 371.08 204.65 358.89 209.13 347.76 Z" />
<path fill="#ade86d" opacity="1.00" d=" M 154.11 460.06 C 159.24 454.33 163.74 448.05 169.18 442.59 C 172.36 445.04 175.96 446.85 179.73 448.21 C 166.24 457.67 155.10 469.89 143.82 481.77 C 140.92 484.90 137.63 487.74 135.34 491.39 C 132.56 495.62 130.94 500.46 128.47 504.86 C 126.46 497.21 128.03 488.84 132.05 482.09 C 137.63 473.12 146.92 467.56 154.11 460.06 Z" />
</g>
<g id="#8dd456ff">
<path fill="#8dd456" opacity="1.00" d=" M 261.88 133.86 C 299.97 117.05 342.81 111.11 384.02 117.15 C 394.49 118.83 405.02 120.66 415.05 124.14 C 406.20 128.33 398.77 135.33 393.89 143.80 C 391.74 148.33 386.42 149.24 382.37 151.35 C 377.68 153.23 373.31 156.48 368.07 156.45 C 362.48 156.48 356.73 157.09 351.65 159.58 C 347.95 161.37 345.07 164.37 342.13 167.16 C 341.84 165.72 341.57 164.27 341.23 162.85 C 340.28 157.92 336.35 154.44 333.38 150.66 C 335.17 146.32 337.71 141.81 337.16 136.98 C 334.86 131.01 329.02 127.18 323.36 124.76 C 318.26 122.95 311.78 121.52 307.13 125.09 C 303.12 128.68 304.00 134.64 302.17 139.26 C 296.93 141.26 289.93 137.90 285.83 142.89 C 282.34 146.52 283.97 151.73 285.87 155.70 C 280.70 160.11 275.59 165.71 275.27 172.88 C 274.63 178.34 277.62 183.18 280.35 187.63 C 269.78 194.69 263.41 206.02 257.27 216.80 C 234.66 215.53 213.93 227.25 196.67 240.70 C 178.96 254.66 161.24 268.62 143.27 282.26 C 140.30 284.56 137.11 286.58 133.73 288.23 C 141.05 256.14 155.76 225.78 176.16 199.97 C 198.75 171.36 228.49 148.49 261.88 133.86 M 266.19 173.22 C 250.00 185.02 233.80 196.80 217.58 208.57 C 215.48 210.17 212.87 211.46 211.87 214.08 C 215.21 212.58 218.02 210.20 220.96 208.08 C 236.66 196.66 252.33 185.19 268.05 173.80 C 269.29 172.97 270.07 171.68 270.86 170.46 C 269.24 171.28 267.66 172.16 266.19 173.22 M 195.12 225.83 C 199.40 224.19 203.69 221.51 206.13 217.55 C 202.02 219.62 198.01 222.19 195.12 225.83 Z" />
<path fill="#8dd456" opacity="1.00" d=" M 461.28 143.28 L 460.94 143.08 C 493.10 160.71 520.63 186.59 540.50 217.40 C 562.33 251.14 574.90 290.82 576.32 331.00 C 577.87 371.89 567.75 413.07 547.77 448.75 C 532.92 475.37 512.50 498.84 488.24 517.29 C 457.94 540.42 421.68 555.63 383.95 561.05 C 345.23 566.70 305.08 561.79 268.78 547.22 C 237.27 534.63 208.50 514.91 185.90 489.55 C 191.14 487.18 195.22 483.01 200.00 479.92 C 207.01 475.24 213.67 469.97 221.22 466.18 C 225.15 464.19 229.54 463.21 233.95 463.35 C 242.59 463.52 251.24 463.69 259.89 463.40 C 266.48 467.64 273.19 471.78 280.50 474.70 C 279.33 470.69 278.07 466.72 276.69 462.78 C 285.88 462.32 295.06 461.39 304.11 459.68 C 308.38 458.71 312.83 458.01 316.65 455.74 C 313.77 465.50 309.81 474.90 306.31 484.44 C 316.17 489.25 327.25 490.68 338.09 491.25 C 357.52 491.98 377.24 490.30 395.85 484.44 C 383.33 445.83 374.13 405.62 354.14 369.94 C 352.08 366.68 350.53 362.96 347.58 360.39 C 343.58 358.56 343.11 353.82 342.77 349.96 C 344.35 331.85 344.20 312.98 337.43 295.83 C 344.89 290.16 346.05 280.21 348.60 271.85 C 350.33 268.13 353.86 265.62 355.89 262.05 C 359.84 262.67 363.87 262.99 367.68 264.29 C 371.86 265.45 373.71 270.43 378.31 270.74 C 375.65 271.04 372.82 271.31 370.63 273.00 C 371.34 278.69 373.97 283.93 375.50 289.43 C 391.03 335.37 403.45 382.62 424.63 426.43 C 426.39 416.65 429.15 407.08 432.84 397.86 C 436.90 387.59 441.91 377.69 445.30 367.17 C 450.96 350.33 452.17 331.60 446.56 314.59 C 442.90 302.62 436.62 291.73 431.51 280.37 C 427.12 271.19 422.41 261.41 423.42 250.94 C 423.88 245.21 427.41 240.22 431.84 236.77 C 436.27 233.13 441.65 230.99 446.84 228.69 C 439.03 220.32 429.37 213.95 419.24 208.73 C 429.76 201.09 440.22 193.39 450.76 185.79 C 453.79 183.66 456.89 181.56 459.38 178.78 C 457.57 179.34 455.79 180.05 454.29 181.22 C 442.12 190.22 429.81 199.03 417.56 207.93 C 415.35 207.00 413.12 206.08 410.87 205.26 C 413.49 203.33 416.07 201.31 418.16 198.80 C 414.73 199.87 411.76 201.96 409.16 204.39 C 397.83 200.22 386.00 197.78 374.14 195.75 C 391.95 188.78 407.14 176.79 421.98 165.02 C 424.40 163.16 427.28 162.09 430.10 161.02 C 437.50 158.23 444.65 154.68 451.16 150.17 C 454.55 147.91 457.65 145.18 461.28 143.28 M 462.48 165.54 C 449.54 174.91 436.64 184.33 423.68 193.66 C 422.40 194.50 421.38 195.65 420.86 197.11 C 424.25 195.65 427.04 193.18 430.02 191.06 C 442.19 182.18 454.36 173.29 466.57 164.45 C 468.74 162.84 471.26 161.47 472.51 158.94 C 468.80 160.55 465.70 163.17 462.48 165.54 M 479.24 277.28 C 478.95 288.85 478.23 300.43 476.47 311.88 C 467.72 366.60 439.69 415.44 424.83 468.38 C 440.60 462.56 453.75 451.18 464.21 438.24 C 487.14 408.90 499.42 371.20 497.66 333.97 C 496.40 313.96 490.73 293.88 479.24 277.28 M 239.96 470.94 C 231.88 476.93 223.73 482.81 215.57 488.68 C 214.28 489.49 213.40 490.74 212.73 492.08 C 216.18 490.65 218.99 488.15 222.00 486.00 C 227.19 482.23 232.37 478.44 237.57 474.70 C 240.22 472.77 243.20 471.11 244.96 468.24 C 243.19 468.93 241.47 469.78 239.96 470.94 M 200.98 500.57 C 204.08 499.41 206.74 497.37 208.96 494.94 C 205.49 495.30 202.67 497.64 200.98 500.57 Z" />
<path fill="#8dd456" opacity="1.00" d=" M 127.94 329.69 C 133.94 323.37 139.94 317.05 145.97 310.76 C 151.35 316.07 158.00 321.31 166.01 320.88 C 175.60 320.95 183.22 314.11 192.40 312.52 C 185.66 340.48 190.83 369.60 198.93 396.67 C 192.62 398.50 186.27 400.85 181.32 405.31 C 175.90 409.78 172.42 415.98 169.17 422.07 C 164.61 430.35 160.17 438.70 155.39 446.86 C 143.13 424.27 134.54 399.64 130.57 374.24 L 130.56 374.08 C 143.35 365.10 155.84 355.71 168.53 346.58 C 172.21 343.73 176.51 341.53 179.29 337.68 C 175.31 339.31 172.05 342.15 168.60 344.65 C 155.83 353.92 143.07 363.22 130.28 372.47 C 128.12 358.33 127.37 343.98 127.94 329.69 Z" />
<path fill="#8dd456" opacity="1.00" d=" M 228.86 326.94 C 232.50 326.78 236.13 326.50 239.72 325.89 C 236.94 329.27 234.41 332.87 232.44 336.79 C 231.30 333.88 230.17 330.96 229.21 327.99 L 228.86 326.94 Z" />
<path fill="#8dd456" opacity="1.00" d=" M 256.73 403.13 C 259.83 404.03 261.96 406.66 264.53 408.47 C 272.45 414.89 281.44 419.76 289.82 425.54 C 282.09 427.87 274.36 430.29 267.07 433.80 C 263.87 423.49 259.92 413.43 256.73 403.13 Z" />
<path fill="#8dd456" opacity="1.00" d=" M 205.04 432.67 C 211.79 431.29 217.21 426.80 222.38 422.54 C 227.36 430.30 232.84 437.71 238.85 444.70 C 233.48 446.19 227.69 447.48 222.21 445.76 C 217.62 444.48 213.99 441.14 209.56 439.54 C 206.32 438.64 203.38 441.36 202.03 444.05 C 200.25 447.86 200.55 452.50 197.80 455.87 C 193.97 460.74 190.19 465.66 186.85 470.87 C 184.09 475.20 182.90 480.30 182.17 485.32 C 175.76 478.20 170.15 470.41 164.81 462.47 C 170.27 457.31 176.02 452.35 182.59 448.65 C 185.81 446.89 188.92 444.88 191.53 442.28 C 195.60 438.56 199.19 433.52 205.04 432.67 Z" />
</g>
<g id="#edffdcff">
<path fill="#edffdc" opacity="1.00" d=" M 423.57 148.47 C 431.94 147.96 439.97 145.40 448.14 143.74 C 448.02 146.08 447.87 148.43 447.66 150.77 C 440.82 155.06 433.35 158.20 425.86 161.16 C 426.92 158.42 428.82 155.39 427.49 152.40 C 426.82 150.56 425.01 149.61 423.57 148.47 Z" />
<path fill="#edffdc" opacity="1.00" d=" M 309.40 153.62 C 314.78 155.11 319.94 158.63 321.91 164.06 C 324.02 169.30 320.61 174.64 321.16 179.98 C 322.30 183.96 325.40 186.94 327.79 190.20 C 330.36 193.29 332.25 197.02 335.41 199.60 C 338.62 201.45 342.47 201.68 346.02 202.51 L 346.68 202.64 C 336.99 205.05 327.12 206.87 317.21 208.22 C 313.52 203.63 312.26 197.67 308.96 192.91 C 306.22 192.65 303.20 193.81 300.69 192.32 C 297.66 190.57 294.71 188.24 293.24 184.99 C 291.58 180.79 296.44 175.85 300.65 177.39 C 303.10 178.88 304.66 181.45 307.02 183.06 C 308.76 183.18 310.45 182.28 311.51 180.93 C 311.51 179.58 311.36 178.25 311.03 176.94 C 313.63 174.50 317.39 172.01 317.05 167.97 C 315.20 162.81 309.74 159.38 309.40 153.62 Z" />
<path fill="#edffdc" opacity="1.00" d=" M 417.40 164.42 C 419.69 162.64 422.10 161.02 424.61 159.57 C 422.62 163.48 418.58 165.56 415.36 168.31 C 399.40 180.62 382.54 193.13 362.49 197.61 C 362.27 189.48 363.89 181.39 366.49 173.71 C 366.92 176.96 367.29 180.32 368.73 183.32 C 369.95 185.61 372.90 184.36 374.82 183.93 C 384.53 180.80 393.80 176.44 403.03 172.13 C 407.96 169.85 413.05 167.74 417.40 164.42 Z" />
<path fill="#edffdc" opacity="1.00" d=" M 292.90 199.58 C 295.69 201.39 298.46 203.58 301.87 203.99 C 305.40 204.27 308.35 202.02 310.99 200.00 C 312.68 203.34 313.95 207.26 317.15 209.48 C 322.31 209.50 327.29 207.76 332.43 207.38 C 327.24 212.83 319.94 215.49 314.02 220.03 C 313.68 216.22 313.60 212.34 312.51 208.65 C 311.52 209.54 311.83 210.89 311.85 212.06 C 312.17 216.65 312.95 221.20 313.18 225.81 C 306.17 224.55 298.32 222.63 293.63 216.85 C 292.16 211.23 292.48 205.32 292.90 199.58 Z" />
<path fill="#edffdc" opacity="1.00" d=" M 293.70 219.66 C 297.20 221.96 300.88 224.02 304.88 225.33 L 304.68 225.45 C 302.03 226.89 299.56 228.65 297.26 230.60 C 295.51 227.16 294.37 223.45 293.70 219.66 Z" />
<path fill="#edffdc" opacity="1.00" d=" M 354.08 256.10 C 358.14 248.71 358.46 240.00 362.14 232.48 C 363.06 245.45 358.25 258.80 349.07 268.05 C 347.65 269.23 347.05 270.95 346.65 272.69 L 346.63 272.69 C 345.93 272.78 344.53 272.96 343.83 273.06 C 346.29 269.17 348.40 265.04 349.83 260.66 C 351.47 259.38 353.19 258.05 354.08 256.10 Z" />
<path fill="#edffdc" opacity="1.00" d=" M 238.16 272.37 C 239.39 262.38 246.95 254.01 256.16 250.43 C 251.07 258.22 245.45 266.40 244.96 276.01 C 244.73 278.51 245.71 282.42 248.96 282.01 C 255.28 281.31 260.97 278.01 267.27 277.08 C 262.74 281.47 256.85 284.06 252.14 288.22 C 250.52 289.51 249.82 291.51 249.11 293.38 C 256.24 295.41 263.69 295.72 270.91 297.31 C 270.73 298.41 270.55 299.50 270.37 300.61 C 262.34 302.43 254.08 302.00 245.91 302.45 C 244.64 302.40 243.44 302.83 242.59 303.78 C 244.45 304.01 246.33 304.12 248.21 304.16 C 243.52 304.75 238.92 305.99 234.60 307.92 C 236.15 309.30 237.79 310.58 239.36 311.95 C 237.13 315.40 233.54 317.40 229.59 318.26 C 229.58 316.07 229.79 313.76 228.48 311.87 C 228.12 314.13 227.98 316.42 227.99 318.72 C 218.28 321.10 210.78 329.04 206.68 337.89 C 208.78 336.89 210.86 335.86 212.94 334.84 C 212.27 338.66 211.55 342.47 210.80 346.28 C 203.48 347.01 195.05 344.68 191.21 337.94 C 190.73 330.20 191.57 322.26 193.68 314.78 C 195.33 309.17 201.22 306.89 205.19 303.22 C 209.36 299.36 214.09 296.16 218.29 292.36 C 220.47 288.15 221.05 283.01 224.58 279.55 C 228.37 275.97 233.42 274.29 238.16 272.37 Z" />
<path fill="#edffdc" opacity="1.00" d=" M 336.27 278.42 C 337.47 277.90 338.66 277.36 339.84 276.80 C 339.11 283.15 336.84 289.65 331.87 293.93 C 322.35 302.99 308.47 303.61 296.36 306.58 C 289.62 306.50 281.89 306.42 277.04 300.97 C 281.27 299.78 285.79 298.93 289.38 296.21 C 292.41 294.06 294.46 290.89 296.51 287.86 C 296.23 293.10 301.07 296.71 305.96 296.71 C 313.61 297.16 319.57 291.37 326.83 290.12 C 322.04 295.66 315.11 298.89 307.99 300.14 C 303.85 301.03 299.44 300.66 295.49 302.37 C 302.03 303.02 308.63 301.89 314.84 299.85 C 324.77 296.41 332.14 287.85 336.27 278.42 Z" />
<path fill="#edffdc" opacity="1.00" d=" M 263.18 303.29 C 267.10 302.52 271.04 301.88 274.99 301.32 C 276.23 305.86 278.99 309.88 282.88 312.56 C 281.22 313.15 279.57 313.74 277.92 314.35 C 278.66 317.38 281.37 318.99 283.86 320.49 C 280.80 321.42 277.30 322.22 274.27 320.78 C 271.86 319.17 270.23 316.68 267.95 314.91 C 269.03 320.28 274.71 324.15 280.13 322.89 C 287.77 321.28 295.47 319.22 302.30 315.33 C 304.79 313.94 307.25 312.50 309.79 311.21 C 308.27 313.14 306.90 315.43 304.58 316.51 C 292.73 322.48 279.19 325.26 265.95 323.94 C 261.23 323.47 256.74 321.78 252.51 319.72 C 257.14 315.01 260.55 309.32 263.18 303.29 Z" />
<path fill="#edffdc" opacity="1.00" d=" M 277.27 303.76 C 280.33 305.35 283.43 307.00 286.96 307.29 L 286.63 307.57 L 285.73 308.34 C 289.48 309.91 293.34 311.19 297.12 312.68 C 295.31 313.45 293.52 314.23 291.65 314.84 C 288.25 313.05 284.30 312.18 281.44 309.49 C 279.64 307.91 278.42 305.82 277.27 303.76 Z" />
<path fill="#edffdc" opacity="1.00" d=" M 233.57 363.50 C 235.50 355.45 242.68 350.23 249.25 345.96 C 248.43 348.92 247.23 351.84 247.15 354.95 C 247.39 359.32 249.90 363.13 252.40 366.57 C 258.55 374.70 265.01 382.61 272.17 389.87 C 280.26 399.09 289.10 407.68 298.81 415.18 C 301.92 417.70 305.72 419.09 309.60 419.88 C 310.15 417.17 310.68 414.46 311.23 411.76 C 314.29 412.71 317.27 414.16 319.23 416.80 C 323.92 422.65 327.55 429.25 331.35 435.70 C 333.32 438.73 333.86 443.27 330.75 445.77 C 327.58 447.97 323.73 448.92 320.40 450.86 C 321.00 451.28 322.18 452.12 322.78 452.53 L 323.11 452.76 C 312.25 456.08 301.32 459.40 289.92 460.24 C 284.94 461.48 281.01 457.20 278.29 453.64 C 273.84 447.75 273.95 439.79 276.18 433.07 C 276.43 432.07 277.03 431.40 277.98 431.07 C 282.45 429.13 287.14 427.74 291.93 426.86 C 301.64 432.60 310.63 439.89 321.47 443.45 C 323.63 444.01 326.02 445.16 328.13 443.81 C 315.03 441.02 304.23 432.79 293.15 425.78 C 283.99 419.60 274.31 414.21 265.63 407.35 C 257.84 401.21 250.35 394.64 243.64 387.33 C 237.79 380.89 232.28 372.61 233.57 363.50 M 237.14 373.42 C 238.52 376.40 241.49 378.06 243.88 380.14 C 261.22 394.26 278.67 408.31 297.04 421.09 C 302.88 424.77 308.81 429.72 316.08 429.66 C 320.28 429.62 321.90 424.05 319.75 420.95 C 319.38 422.80 319.23 424.71 318.61 426.51 C 317.41 428.88 314.30 428.08 312.23 427.69 C 305.87 425.69 300.44 421.66 294.97 417.99 C 278.28 406.15 262.42 393.20 246.50 380.36 C 243.45 377.95 240.67 375.12 237.14 373.42 M 290.10 451.95 C 286.27 452.54 282.27 450.75 278.58 452.22 C 286.76 454.49 295.77 453.79 303.49 450.26 C 305.48 449.31 307.69 448.31 308.47 446.06 C 302.74 449.07 296.72 451.89 290.10 451.95 Z" />
<path fill="#edffdc" opacity="1.00" d=" M 215.43 381.33 C 218.89 374.64 222.74 368.14 226.95 361.89 C 228.11 367.38 231.04 372.12 234.31 376.58 C 238.35 384.68 244.99 390.95 251.29 397.27 L 251.13 397.79 C 246.77 400.15 241.80 400.84 237.28 402.77 C 237.11 400.87 237.29 398.73 235.71 397.36 C 232.28 393.90 229.26 388.93 223.92 388.50 C 221.70 388.17 219.44 388.13 217.23 387.69 C 215.08 386.55 214.16 383.44 215.43 381.33 Z" />
<path fill="#edffdc" opacity="1.00" d=" M 185.25 404.21 C 189.61 401.12 194.74 399.44 199.85 398.09 C 202.62 403.21 205.71 408.16 208.88 413.04 C 202.39 416.34 195.55 419.14 189.80 423.71 C 182.90 429.14 176.57 435.25 170.24 441.32 C 168.22 437.46 165.99 432.93 167.54 428.52 C 172.08 419.59 176.65 409.96 185.25 404.21 Z" />
</g>
<g id="#79a74aff">
<path fill="#79a74a" opacity="1.00" d=" M 300.26 245.26 C 300.49 245.49 300.49 245.49 300.26 245.26 Z" />
<path fill="#79a74a" opacity="1.00" d=" M 355.89 262.05 C 356.40 261.21 356.92 260.38 357.40 259.51 C 369.25 260.80 381.36 260.67 392.94 263.88 C 392.29 265.67 391.97 267.96 390.01 268.83 C 386.39 270.60 382.22 270.32 378.31 270.74 C 373.71 270.43 371.86 265.45 367.68 264.29 C 363.87 262.99 359.84 262.67 355.89 262.05 Z" />
<path fill="#79a74a" opacity="1.00" d=" M 334.13 298.27 C 335.24 297.47 336.35 296.67 337.43 295.83 C 344.20 312.98 344.35 331.85 342.77 349.96 C 343.11 353.82 343.58 358.56 347.58 360.39 C 343.56 377.16 338.42 393.65 332.93 410.00 C 330.62 405.73 327.86 401.74 325.60 397.45 L 324.73 398.08 L 325.11 397.05 C 332.64 377.53 338.13 357.01 339.33 336.05 C 339.79 323.30 338.23 310.38 334.13 298.27 Z" />
<path fill="#79a74a" opacity="1.00" d=" M 191.02 340.92 C 193.65 343.01 196.25 345.28 199.45 346.44 C 202.54 347.57 205.88 347.56 209.13 347.76 C 204.65 358.89 202.00 371.08 204.17 383.05 C 205.51 392.40 209.69 401.17 215.46 408.59 C 216.60 410.00 218.02 411.55 220.03 411.42 C 225.35 411.57 230.59 410.35 235.72 409.09 C 235.37 410.80 236.08 413.28 234.05 414.17 C 230.50 416.14 226.39 416.72 222.49 417.65 C 219.34 418.16 215.35 418.68 213.00 416.01 C 209.14 411.37 206.24 406.03 203.08 400.91 C 199.28 394.82 197.89 387.69 196.24 380.82 C 193.34 367.72 190.58 354.41 191.02 340.92 Z" />
<path fill="#79a74a" opacity="1.00" d=" M 235.21 447.32 C 248.78 443.90 261.39 437.67 274.36 432.55 C 273.56 438.20 272.09 444.22 274.45 449.70 C 276.00 454.21 279.72 457.32 282.77 460.79 C 266.23 462.00 249.63 462.19 233.05 461.81 C 226.67 461.50 220.76 464.37 215.44 467.60 C 208.18 472.19 201.18 477.20 194.16 482.17 C 190.96 484.33 188.06 488.13 183.78 487.54 C 183.79 482.34 185.06 477.14 187.62 472.61 C 191.23 466.69 195.63 461.31 199.77 455.77 C 202.91 451.56 201.29 444.98 205.98 441.75 C 209.05 439.60 212.24 442.78 214.96 444.09 C 220.85 448.10 228.36 448.95 235.21 447.32 Z" />
<path fill="#79a74a" opacity="1.00" d=" M 146.90 461.91 C 154.37 453.22 159.29 442.77 165.17 433.02 C 166.35 436.27 167.64 439.49 169.18 442.59 C 163.74 448.05 159.24 454.33 154.11 460.06 C 146.92 467.56 137.63 473.12 132.05 482.09 C 128.03 488.84 126.46 497.21 128.47 504.86 C 128.29 508.10 126.44 511.41 123.97 513.53 C 121.12 513.11 119.22 510.60 117.71 508.37 C 115.24 504.45 113.56 499.28 115.69 494.86 C 117.46 490.55 121.29 487.46 122.97 483.15 C 123.56 478.33 120.69 472.65 124.48 468.56 C 127.41 466.28 131.53 467.87 134.97 467.52 C 139.65 467.99 143.97 465.38 146.90 461.91 Z" />
</g>
</svg>
